<?xml version="1.0" standalone="no"?>
<!DOCTYPE svg PUBLIC "-//W3C//DTD SVG 20010904//EN"
 "http://www.w3.org/TR/2001/REC-SVG-20010904/DTD/svg10.dtd">
<svg version="1.0" xmlns="http://www.w3.org/2000/svg"
 width="612.000000pt" height="612.000000pt" viewBox="0 0 612.000000 612.000000"
 preserveAspectRatio="xMidYMid meet">

<g transform="translate(0.000000,612.000000) scale(0.100000,-0.100000)"
fill="#000000" stroke="none">
<path d="M850 3630 l0 -770 574 0 c645 0 586 8 586 -80 0 -78 -27 -196 -60
-264 -116 -236 -430 -395 -867 -441 -34 -4 -63 -12 -65 -18 -2 -7 3 -178 11
-380 l14 -368 111 6 c508 29 867 155 1166 410 266 227 454 579 526 985 18 97
19 168 19 895 l0 790 -1007 2 -1008 3 0 -770z"/>
<path d="M3307 4393 c-4 -3 -7 -350 -7 -770 l0 -763 578 -2 577 -3 3 -50 c6
-85 -17 -193 -59 -284 -106 -228 -396 -386 -805 -438 l-131 -17 5 -101 c2 -55
9 -224 15 -375 l12 -275 110 3 c324 9 646 87 881 213 449 241 735 670 814
1222 19 134 20 182 18 892 l-3 750 -1001 3 c-550 1 -1004 -1 -1007 -5z"/>
<path d="M150 410 c0 -17 7 -20 40 -20 33 0 40 3 40 20 0 17 -7 20 -40 20 -33
0 -40 -3 -40 -20z"/>
<path d="M260 410 c0 -17 7 -20 40 -20 33 0 40 3 40 20 0 17 -7 20 -40 20 -33
0 -40 -3 -40 -20z"/>
<path d="M370 270 l0 -160 35 0 35 0 1 63 1 62 19 -62 c19 -61 21 -63 54 -63
l35 0 0 160 0 160 -35 0 -35 0 -1 -62 -1 -63 -20 63 c-19 60 -21 62 -54 62
l-34 0 0 -160z"/>
<path d="M150 246 c0 -73 -4 -127 -10 -131 -5 -3 -10 -15 -10 -26 0 -15 7 -19
34 -19 57 0 66 23 66 172 l0 128 -40 0 -40 0 0 -124z"/>
<path d="M258 240 l-3 -130 43 0 42 0 0 130 0 130 -39 0 -40 0 -3 -130z"/>
<path d="M574 354 c30 -79 30 -115 -1 -227 -4 -16 0 -18 29 -15 29 3 33 7 36
36 4 39 22 33 22 -9 0 -27 2 -29 39 -29 l40 0 -19 68 c-17 63 -18 73 -5 123
19 71 20 69 -20 69 -32 0 -35 -2 -35 -29 0 -42 -18 -48 -22 -9 -3 29 -7 33
-37 36 -28 3 -33 1 -27 -14z"/>
</g>
</svg>
